<?xml version="1.0" encoding="UTF-8"?>
<!DOCTYPE svg PUBLIC "-//W3C//DTD SVG 1.1//EN" "http://www.w3.org/Graphics/SVG/1.1/DTD/svg11.dtd">
<!-- Creator: CorelDRAW (Versión OEM) -->
<svg xmlns="http://www.w3.org/2000/svg" xml:space="preserve" width="111.401mm" height="61.4761mm" version="1.1" style="shape-rendering:geometricPrecision; text-rendering:geometricPrecision; image-rendering:optimizeQuality; fill-rule:evenodd; clip-rule:evenodd"
viewBox="0 0 9501.72 5243.48"
 xmlns:xlink="http://www.w3.org/1999/xlink"
 xmlns:xodm="http://www.corel.com/coreldraw/odm/2003">
 <defs>
  <style type="text/css">
   <![CDATA[
    .fil0 {fill:#FEFEFE}
   ]]>
  </style>
 </defs>
 <g id="Capa_x0020_1">
  <metadata id="CorelCorpID_0Corel-Layer"/>
  <path class="fil0" d="M1707.86 2652.06c22.17,-86.91 69.95,-193.43 103.8,-278.63 36.42,-91.66 72.51,-178.43 108.9,-270.61 36.38,-92.13 104,-190.31 31.69,-279.1 -45.16,-55.46 -184.39,-111.2 -270.05,-45.03 -104.38,80.64 -392.38,860.68 -459.41,1066.31 -63.53,194.89 -117.62,384.74 -163.52,594.54 -49.99,228.53 -110.46,485.77 83.19,590.53 101.24,54.77 215.65,52.65 243.09,-66.06 23.19,-100.26 28.46,-225.82 48.47,-330.48 41.67,-217.96 100.14,-409.47 155.72,-610.99 74.46,40.28 65.59,45.64 159.53,13.27 59.84,-20.62 130.59,-31.39 195.42,-14.86 265.11,67.58 191.18,406.74 68.89,606.26 -164.69,268.72 -401.47,490.43 -727.68,607.59 -171.57,61.63 -477.57,113.21 -591.03,-84.88 -18.89,-32.99 -18.17,-44.77 -53,-59.04 -64.74,-5.35 -196.85,236.77 -41.19,454.48 83.04,116.14 243.2,193.05 446.41,189.69 403.38,-6.66 816.71,-295.37 1055.58,-536.54 153.69,-155.17 301.31,-359.54 372.43,-584.29 93.69,-296.09 82.9,-638.52 -211.25,-792.83 -37.56,-19.7 -85.98,-29.77 -113.76,-49.23 49.4,-41.07 112.48,-72.07 162.73,-112.54 106.84,-86.05 193.79,-161.08 276.22,-275.91 36.03,-50.2 73.29,-110.09 105.45,-169.9 146.93,-273.31 184.17,-606.97 -4.2,-860.77 -157.55,-212.29 -482.24,-285.57 -827.92,-212.57 -314.87,66.49 -552.42,217.87 -721.44,390.03 -215.88,219.88 -103.55,523.44 78.17,511.76 71.08,-4.57 89.92,-91.27 129.53,-149.24 117.86,-172.51 391.06,-380.65 698.9,-411.15 431.57,-42.76 407.62,370.55 255.25,650.67 -99.37,182.67 -354.41,473.86 -594.94,519.49z"/>
  <path class="fil0" d="M5375.47 3674.04c-802.07,65.4 -2086.74,520.35 -2773.33,920.42 -131,76.33 -269.58,172.56 -339.79,272.31 -109.31,155.3 -14.08,354.83 157.23,375.13 154.35,18.3 328.32,-127.51 414.09,-191.55 318.84,-238.08 813.48,-496.56 1187.04,-656.92 320.27,-137.48 806.45,-289.36 1169.27,-364.99 65.16,-13.59 211.63,-29.84 262.13,-47.84 71.59,-25.54 106.95,-105.35 111.85,-200.28 6.3,-122.19 -86.24,-114.62 -188.5,-106.28z"/>
  <path class="fil0" d="M7132.94 3545.02c-51.93,9.94 -81.87,29.86 -97.04,81.19 -86.42,292.55 164.16,143.68 652.71,233.75 68.93,12.71 244.72,66.78 302.92,58.75 141.29,-19.51 160.65,-243.49 -197.07,-328.62 -154.53,-36.77 -502.92,-75.43 -661.52,-45.08z"/>
  <path class="fil0" d="M7925.46 925.39c-279.62,68.99 -261.75,626.65 8.54,522.06 94.47,-36.55 163.2,-158.7 188.07,-277.15 32.33,-153.96 -28.84,-286.3 -196.61,-244.91z"/>
  <path class="fil0" d="M8395.99 772.88c74.59,8.79 105.24,-74.52 157.95,-162.12l244.08 -393.71c29.36,-45.73 119.62,-166.47 37.53,-210.43 -98.84,-52.92 -273.41,226.44 -316.11,303.04 -50.41,90.44 -196,356.46 -123.44,463.22z"/>
  <path class="fil0" d="M9216.36 615.53c-142.92,50.72 -467.47,267.52 -550.64,374.27 -60.79,78.03 -40.1,181.61 86.22,120.69 60.67,-29.26 129.27,-81.9 183.2,-118.18l380.37 -240.3c77.65,-66.14 10.06,-175.23 -99.15,-136.48z"/>
  <path class="fil0" d="M931.54 2432.38c23.17,-76.88 -39.38,-137.53 -96.35,-181.07 -87.73,-67.07 -457.09,-379.2 -548.66,-273.28 -76.94,89 173.02,219.91 258.4,279.39 129.84,90.44 255.89,210.16 386.62,174.96z"/>
  <path class="fil0" d="M729.08 2894.15c17.54,-80.53 -35.37,-98.01 -99.7,-126.7 -132.64,-59.18 -523.26,-175.62 -607.86,-107.35 -27.88,22.5 -27.54,62.51 -5.53,91.41 15.43,20.27 46.85,32.34 79.98,41.94 124.87,36.17 535.32,136.33 633.1,100.71z"/>
  <path class="fil0" d="M5441.74 2806.63c47.01,-30.65 216.64,-33.08 367.08,-184.15 89.37,-89.75 170.29,-178.22 222.26,-329.61 48.42,-141.06 59.19,-333.98 -22.64,-449.3 -83.24,-117.29 -250.55,-148.59 -414.97,-83.1 -191.93,76.44 -387.74,393.45 -461.14,651.23 -43.47,152.72 -65.76,374.73 -97.3,454.3 -30.3,76.47 -182.39,334.45 -266.34,277.56 -54.14,-59.55 120.99,-451.21 151.53,-531.75 54.72,-144.27 166.52,-410.21 131.18,-586.23 -42.83,-213.38 -274.65,-253.72 -451.39,-129.7 -81.33,57.07 -118.88,102.5 -183.31,178.77 -40,47.36 -106.68,183.82 -143.04,213.9 33.02,-126.29 40.3,-233.86 -70.55,-285.91 -52.07,-24.45 -114.49,-26.82 -167.07,-7.34 -68.41,25.33 -63.15,50.7 -80.1,127.68 -43.17,195.99 -115.23,457.75 -187.82,630.37 -83.98,199.7 -198.84,372.17 -320.8,497.64 -181.02,186.22 -445.88,237.22 -422.38,-95.64 121.33,-32.2 162.68,-33.09 264.48,-96.45 213.55,-132.9 412.79,-429.8 369.28,-717.3 -30.06,-198.55 -217.27,-318.07 -443.14,-236.19 -160.59,58.21 -278.16,220.05 -362.84,361.6 -146.19,244.38 -334.03,864.82 -104.25,1128.08 121.24,138.91 289.71,204.18 524.44,102.5 169.01,-73.21 254.76,-187 366.63,-314.19l31.8 -28.27c-2.76,123.41 -1.3,192.27 81.94,243.88 64.21,39.81 209.79,57.12 252.99,-13.56 5.49,-8.97 42.13,-236.12 51.38,-275.91 76.49,-329.26 249.35,-769.35 457.52,-1033.15 30,-38.02 80.27,-77.46 108.3,-46.73 53.29,83.14 -315.73,785.44 -261.58,1061.18 34.34,174.83 214.78,293.46 414.84,204.24 160.04,-71.36 238.92,-200.96 346.05,-335.99 66.54,71.48 63,122.34 172.77,181.98 218.08,118.49 481.04,4.14 632.06,-160.37l93.93 -90.11c-40.68,281.13 -155.96,591.11 -80.95,888.17 68.22,270.19 384.42,365.58 639.57,190.71 171.39,-117.47 294.71,-368.65 350.3,-651.18 28.84,-146.55 37.12,-307.32 16.26,-459.07 -9.45,-68.77 -26.59,-140.92 -46.72,-202.67 -25.37,-77.85 -56.84,-110.63 -82.01,-170.54 127.62,-96.57 292.09,-103.55 492.96,-306.7 -15.42,137.96 -182.54,408.58 -87.36,601.14 81.13,164.14 303.29,246.64 495.99,105.18 124.67,-91.52 239.95,-255.03 333.15,-408.61 44.33,-73.05 89.57,-160.13 127.92,-242.09 28.33,-60.54 86.58,-223.31 113.23,-264.43 94.71,179.87 -4.65,284.33 -103.88,420.32 -59.28,81.24 -229.44,278.42 -256.6,364.87 -45.02,143.35 93.92,238.84 216.23,206.55 51.14,-13.5 61.33,-35.71 83.8,-71.7 77.89,-124.78 153.14,-268.02 235.02,-384.15 92.63,94.17 185.1,329.89 486.93,286.05 202.5,-29.41 380.8,-204.39 459.09,-332.09 190.31,-310.39 32.35,-528.53 -122.92,-286.29 -60.05,93.69 -99.65,149.92 -187.15,208.75 -175.07,117.7 -284.63,-50.6 -326.02,-190.95 -33.81,-114.63 -10.34,-113.72 114.41,-244.57 17.14,-17.96 31.74,-27.76 48.12,-46.31 17.83,-20.19 28.88,-36.38 47.2,-56.65 16.67,-18.45 30.88,-28.52 46.83,-47.62 78.29,-93.69 276.37,-297.34 312.45,-386.26 46.67,-115.03 -12.52,-231.62 -101.79,-264.54 -135.34,-49.9 -201.75,52.48 -251.57,118.86 -65.35,87.08 -274.05,401.12 -338.25,450.31 -65.4,-147.78 -18.69,-473.61 -241.41,-465.52 -94.68,3.44 -205.9,59.83 -221.11,136.16 -20.42,102.56 25.32,214.73 -12.18,324.32 -57.27,167.32 -137.43,343.7 -218.29,488.11 -67.24,120.08 -212.38,357.62 -326.16,381.45 -82.36,-218.87 293.83,-836.05 271.34,-1067.49 -12.02,-123.67 -200.98,-174.66 -286.32,-86.04 -43.31,44.97 -61.71,68.5 -98.16,126.32 -58.62,92.99 -120.91,178.56 -194.49,261.64 -113.47,128.11 -198.11,244.47 -355.59,333.78 -84.7,48.04 -260.07,108.11 -350.69,39.02 -0.77,-44.89 16.62,-56.96 39.12,-83.48 66.2,-78.03 160.12,-200.46 232.49,-267.44 80.21,-74.23 349,-379.6 426.33,-469.68 69.74,-81.22 149.42,-191.9 210.87,-297.47 263.96,-453.54 92.64,-975.35 -386.85,-861 -151.05,36.02 -233.32,119.12 -311.73,197.11 -245.02,243.71 -449,1036.45 -564.17,1461.16 -32.81,121.01 -59.96,298.55 -100.34,407.79 -38,102.79 -136.61,241.75 -194.17,314.3 -275.21,346.85 -547.77,326.55 -532.55,18.53zm-2386.12 108.49c198.97,-75.92 380.31,-370.66 321.13,-515.21 -162.88,-32.85 -317.41,460.32 -321.13,515.21zm3310.47 973.32c128.28,-4.82 210.63,-320.4 233.43,-474.13 32.21,-217.1 5.94,-447.16 -87.53,-606.65 -40.45,36.62 -115.06,465.43 -125.85,521.59 -24.48,127.33 -99.28,466.25 -20.05,559.19zm373.51 -1989.71c55.36,-29.56 763.68,-983.25 596.99,-1168.34 -73.96,-82.13 -211.17,126.7 -239.86,172.06 -105.73,167.16 -197.02,451.08 -255.93,649.56 -29.79,100.37 -63.47,257.35 -101.2,346.72zm-1272.44 665.5c208.06,-66.61 392.36,-439.61 313.87,-511.49 -63.14,-57.82 -179.18,141.51 -203.76,191.52 -37.37,76.05 -94.22,230 -110.11,319.98z"/>
 </g>
</svg>
