<?xml version="1.0" encoding="UTF-8"?>
<!DOCTYPE svg PUBLIC "-//W3C//DTD SVG 1.1//EN" "http://www.w3.org/Graphics/SVG/1.1/DTD/svg11.dtd">
<!-- Creator: CorelDRAW (Versión OEM) -->
<svg xmlns="http://www.w3.org/2000/svg" xml:space="preserve" width="116.754mm" height="81.4411mm" version="1.1" style="shape-rendering:geometricPrecision; text-rendering:geometricPrecision; image-rendering:optimizeQuality; fill-rule:evenodd; clip-rule:evenodd"
viewBox="0 0 10436.9 7280.17"
 xmlns:xlink="http://www.w3.org/1999/xlink"
 xmlns:xodm="http://www.corel.com/coreldraw/odm/2003">
 <defs>
  <style type="text/css">
   <![CDATA[
    .fil0 {fill:#7131E1}
   ]]>
  </style>
 </defs>
 <g id="Capa_x0020_1">
  <metadata id="CorelCorpID_0Corel-Layer"/>
  <path class="fil0" d="M1789.93 2779.51c23.23,-91.08 73.31,-202.72 108.79,-292.02 38.17,-96.06 75.99,-187.01 114.14,-283.61 38.13,-96.56 109,-199.46 33.21,-292.52 -47.33,-58.12 -193.26,-116.55 -283.02,-47.19 -109.4,84.52 -411.24,902.04 -481.49,1117.55 -66.59,204.26 -123.27,403.23 -171.37,623.11 -52.39,239.51 -115.77,509.11 87.19,618.9 106.11,57.4 226.01,55.18 254.78,-69.23 24.31,-105.08 29.83,-236.67 50.8,-346.37 43.67,-228.43 104.95,-429.15 163.2,-640.35 78.04,42.22 68.74,47.83 167.2,13.91 62.72,-21.61 136.87,-32.9 204.81,-15.57 277.85,70.83 200.36,426.28 72.2,635.4 -172.61,281.63 -420.77,513.99 -762.65,636.79 -179.81,64.59 -500.52,118.65 -619.43,-88.95 -19.8,-34.58 -19.04,-46.92 -55.55,-61.88 -67.85,-5.6 -206.31,248.15 -43.17,476.32 87.03,121.72 254.88,202.33 467.86,198.81 422.76,-6.98 855.96,-309.56 1106.3,-562.32 161.08,-162.63 315.79,-376.82 390.33,-612.37 98.2,-310.32 86.88,-669.21 -221.4,-830.93 -39.37,-20.65 -90.11,-31.2 -119.23,-51.6 51.78,-43.04 117.88,-75.54 170.55,-117.94 111.97,-90.19 203.11,-168.83 289.5,-289.16 37.76,-52.62 76.81,-115.38 110.52,-178.07 153.99,-286.45 193.02,-636.14 -4.4,-902.13 -165.12,-222.5 -505.41,-299.29 -867.71,-222.78 -330,69.69 -578.96,228.34 -756.11,408.77 -226.25,230.44 -108.52,548.6 81.93,536.35 74.5,-4.79 94.24,-95.66 135.75,-156.41 123.52,-180.8 409.85,-398.94 732.49,-430.9 452.3,-44.81 427.21,388.35 267.51,681.94 -104.14,191.45 -371.44,496.63 -623.53,544.46z"/>
  <path class="fil0" d="M5633.8 3850.6c-840.61,68.55 -2187.02,545.35 -2906.6,964.65 -137.3,80 -282.53,180.85 -356.12,285.4 -114.56,162.76 -14.76,371.88 164.78,393.15 161.76,19.17 344.1,-133.64 433.99,-200.76 334.16,-249.52 852.57,-520.42 1244.08,-688.49 335.66,-144.09 845.2,-303.26 1225.46,-382.53 68.3,-14.24 221.8,-31.27 274.73,-50.14 75.04,-26.76 112.09,-110.42 117.23,-209.9 6.61,-128.06 -90.38,-120.12 -197.56,-111.39z"/>
  <path class="fil0" d="M4177.24 5204.61c-1006.11,135.9 -1274.75,1472.35 -318.37,1965.66 285.65,147.34 698.44,104.01 1049.5,103.78l4045.98 -0.06c175.68,0.12 399.51,11.68 568.4,-7.58 630.2,-71.88 1069.8,-734.24 862.09,-1348.23 -92.99,-274.89 -266.13,-495.94 -532.69,-623.59 -294.22,-140.9 -706.53,-99.26 -1060.35,-99.31l-4045.98 -0.03c-171.95,-0.13 -405.58,-12.66 -568.58,9.35zm1394.96 1589.48l0.62 -288.62c-40.72,5.62 -127.3,47.91 -181.24,62.44 -232.22,62.53 -412.36,-12.26 -425.23,-294.92 -6.9,-151.55 30.37,-312.33 142.6,-367.81 141.02,-69.73 290.34,-3.7 404.52,48.33 16.72,-17.29 94.68,-231.53 102.04,-269.15 -118.58,-37.82 -172.87,-75.98 -327.43,-86.67 -765.79,-52.98 -839.74,915.03 -402.81,1186.73 176.57,109.79 496.04,108.92 686.93,9.67zm2528.24 52.48c133.82,10.97 310.02,1.34 447.51,1.62 148.05,0.3 270.78,-6.45 378.19,-78.72 94.19,-63.38 149.62,-155.96 137.55,-315.2 -13.93,-183.83 -133.56,-204.61 -205.49,-252.49 40.19,-39.82 164.24,-58.29 178.18,-243.57 23.44,-311.66 -277.46,-341.7 -506.49,-342.2 -117.62,-0.25 -320.16,-11.47 -428.15,3.75l-1.3 1226.8zm332.11 -250.09c130.02,3.93 293.52,19.71 296.7,-123.76 3.27,-147.72 -173.5,-136.4 -298.07,-133.5 -6.76,49.21 -10.24,213.11 1.37,257.26zm-5.72 -504.29c115.44,0.46 268.09,19.17 275.76,-107.57 8.55,-141.27 -160.51,-117.26 -274.9,-117.68l-0.86 225.25zm-907.11 -472.35c20.08,101.73 3.45,444.53 3.5,572.9 0.05,194.26 29.32,391.01 -194.42,393.61 -223.72,2.59 -204.91,-195.63 -204.75,-384.57 0.1,-114.2 -14.36,-500.35 4.96,-581.58l-337.5 -0.82c-8.7,140.28 -1.45,304.16 -1.24,446.93 0.5,344.15 -58.8,801.66 538.42,799.87 276.79,-0.82 469.76,-127.34 516.86,-373.06 23.07,-120.41 13.9,-305.27 13.11,-435.84 -0.86,-141.23 6.28,-298.25 -2.74,-439.83l-336.2 2.39zm-1717.61 1229.11l825.41 -0.75 0.26 -270.21 -496.59 -0.9 2.22 -958.83 -328.51 -0.88 -2.79 1231.59z"/>
  <path class="fil0" d="M7475.72 3715.38c-54.42,10.41 -85.81,31.3 -101.7,85.09 -90.57,306.61 172.05,150.58 684.08,244.99 72.24,13.32 256.48,69.99 317.48,61.57 148.08,-20.44 168.37,-255.2 -206.54,-344.41 -161.96,-38.54 -527.09,-79.06 -693.31,-47.24z"/>
  <path class="fil0" d="M8306.33 969.86c-293.05,72.31 -274.33,656.76 8.95,547.15 99.01,-38.3 171.04,-166.32 197.11,-290.47 33.88,-161.36 -30.22,-300.06 -206.06,-256.68z"/>
  <path class="fil0" d="M8799.47 810.02c78.17,9.21 110.3,-78.1 165.54,-169.91l255.81 -412.63c30.77,-47.92 125.37,-174.47 39.33,-220.54 -103.59,-55.46 -286.55,237.32 -331.3,317.6 -52.83,94.78 -205.42,373.6 -129.38,485.48z"/>
  <path class="fil0" d="M9659.26 645.11c-149.78,53.16 -489.93,280.38 -577.1,392.25 -63.71,81.78 -42.03,190.33 90.37,126.49 63.58,-30.67 135.48,-85.83 192,-123.86l398.65 -251.84c81.38,-69.31 10.54,-183.66 -103.92,-143.04z"/>
  <path class="fil0" d="M976.31 2549.27c24.29,-80.58 -41.27,-144.14 -100.98,-189.77 -91.95,-70.29 -479.06,-397.43 -575.03,-286.41 -80.64,93.28 181.33,230.48 270.81,292.81 136.08,94.79 268.18,220.26 405.2,183.37z"/>
  <path class="fil0" d="M764.12 3033.23c18.39,-84.39 -37.07,-102.72 -104.49,-132.79 -139.01,-62.02 -548.41,-184.06 -637.07,-112.51 -29.22,23.58 -28.86,65.52 -5.79,95.8 16.17,21.25 49.1,33.9 83.82,43.95 130.87,37.91 561.04,142.88 663.53,105.54z"/>
  <path class="fil0" d="M5703.25 2941.51c49.27,-32.12 227.06,-34.67 384.72,-193 93.66,-94.07 178.47,-186.78 232.95,-345.45 50.75,-147.84 62.04,-350.03 -23.72,-470.89 -87.24,-122.93 -262.59,-155.73 -434.91,-87.09 -201.16,80.11 -406.38,412.36 -483.3,682.52 -45.56,160.06 -68.92,392.74 -101.98,476.14 -31.76,80.14 -191.16,350.52 -279.14,290.9 -56.74,-62.41 126.8,-472.89 158.81,-557.3 57.35,-151.21 174.52,-429.92 137.48,-614.4 -44.89,-223.63 -287.85,-265.91 -473.08,-135.93 -85.24,59.81 -124.59,107.42 -192.12,187.36 -41.92,49.64 -111.8,192.66 -149.92,224.18 34.6,-132.36 42.24,-245.09 -73.94,-299.65 -54.57,-25.63 -119.99,-28.11 -175.1,-7.7 -71.7,26.55 -66.19,53.13 -83.95,133.81 -45.24,205.4 -120.77,479.75 -196.85,660.67 -88.02,209.29 -208.4,390.05 -336.22,521.56 -189.72,195.17 -467.3,248.62 -442.68,-100.24 127.16,-33.75 170.5,-34.68 277.19,-101.08 223.81,-139.28 432.63,-450.45 387.02,-751.77 -31.5,-208.1 -227.71,-333.36 -464.44,-247.54 -168.31,61.01 -291.52,230.62 -380.27,378.98 -153.22,256.13 -350.09,906.38 -109.26,1182.29 127.07,145.58 303.63,214 549.64,107.42 177.13,-76.73 267,-195.98 384.25,-329.28l33.33 -29.63c-2.9,129.34 -1.37,201.51 85.88,255.6 67.29,41.73 219.87,59.87 265.15,-14.21 5.76,-9.4 44.16,-247.46 53.85,-289.17 80.17,-345.08 261.34,-806.32 479.51,-1082.8 31.44,-39.84 84.13,-81.19 113.5,-48.98 55.85,87.13 -330.9,823.18 -274.15,1112.18 35.99,183.24 225.1,307.56 434.78,214.06 167.73,-74.79 250.4,-210.62 362.68,-352.14 69.73,74.92 66.02,128.22 181.07,190.73 228.56,124.18 504.15,4.34 662.44,-168.07l98.45 -94.44c-42.64,294.64 -163.45,619.51 -84.84,930.86 71.5,283.18 402.89,383.15 670.3,199.87 179.62,-123.11 308.88,-386.37 367.13,-682.47 30.22,-153.59 38.9,-322.09 17.04,-481.13 -9.9,-72.08 -27.87,-147.69 -48.97,-212.41 -26.59,-81.59 -59.57,-115.95 -85.95,-178.74 133.76,-101.21 306.13,-108.53 516.65,-321.44 -16.16,144.59 -191.31,428.21 -91.56,630.02 85.03,172.03 317.87,258.49 519.82,110.24 130.66,-95.92 251.49,-267.28 349.16,-428.25 46.46,-76.56 93.87,-167.82 134.07,-253.72 29.69,-63.45 90.74,-234.04 118.67,-277.14 99.26,188.52 -4.87,298 -108.87,440.52 -62.13,85.15 -240.46,291.8 -268.93,382.41 -47.18,150.24 98.44,250.32 226.63,216.47 53.6,-14.15 64.28,-37.43 87.83,-75.14 81.63,-130.77 160.49,-280.9 246.31,-402.61 97.08,98.7 194,345.74 510.33,299.79 212.23,-30.82 399.1,-214.21 481.15,-348.05 199.45,-325.31 33.91,-553.93 -128.82,-300.04 -62.94,98.19 -104.44,157.12 -196.14,218.78 -183.49,123.35 -298.31,-53.04 -341.69,-200.13 -35.43,-120.14 -10.83,-119.19 119.91,-256.32 17.96,-18.83 33.26,-29.1 50.43,-48.53 18.69,-21.16 30.27,-38.13 49.47,-59.37 17.48,-19.34 32.36,-29.89 49.08,-49.91 82.05,-98.19 289.66,-311.63 327.47,-404.82 48.92,-120.56 -13.12,-242.75 -106.68,-277.25 -141.85,-52.3 -211.45,55 -263.66,124.58 -68.49,91.27 -287.22,420.4 -354.5,471.95 -68.55,-154.88 -19.59,-496.37 -253.01,-487.89 -99.22,3.6 -215.79,62.71 -231.73,142.71 -21.4,107.49 26.54,225.04 -12.77,339.9 -60.03,175.36 -144.04,360.21 -228.78,511.56 -70.47,125.85 -222.59,374.8 -341.83,399.78 -86.32,-229.39 307.95,-876.23 284.38,-1118.79 -12.6,-129.61 -210.63,-183.06 -300.08,-90.17 -45.39,47.14 -64.67,71.79 -102.87,132.39 -61.44,97.45 -126.72,187.14 -203.84,274.21 -118.93,134.27 -207.63,256.21 -372.67,349.82 -88.77,50.35 -272.56,113.3 -367.54,40.9 -0.8,-47.05 17.41,-59.7 41,-87.5 69.39,-81.78 167.82,-210.1 243.66,-280.3 84.06,-77.8 365.77,-397.85 446.82,-492.25 73.09,-85.13 156.61,-201.12 221,-311.76 276.65,-475.33 97.09,-1022.22 -405.45,-902.37 -158.3,37.75 -244.53,124.84 -326.71,206.58 -256.8,255.42 -470.58,1086.25 -591.28,1531.38 -34.39,126.82 -62.84,312.9 -105.16,427.38 -39.82,107.73 -143.18,253.37 -203.5,329.4 -288.44,363.52 -574.09,342.25 -558.14,19.42zm-2500.79 113.71c208.53,-79.57 398.59,-388.47 336.56,-539.97 -170.7,-34.43 -332.66,482.44 -336.56,539.97zm3469.56 1020.09c134.45,-5.05 220.75,-335.8 244.65,-496.91 33.75,-227.53 6.23,-468.65 -91.73,-635.81 -42.39,38.38 -120.59,487.79 -131.9,546.66 -25.66,133.45 -104.05,488.66 -21.02,586.06zm391.46 -2085.33c58.02,-30.98 800.38,-1030.5 625.68,-1224.49 -77.51,-86.08 -221.32,132.79 -251.39,180.33 -110.81,175.19 -206.49,472.76 -268.23,680.77 -31.22,105.2 -66.52,269.71 -106.06,363.39zm-1333.59 697.48c218.06,-69.81 411.22,-460.73 328.95,-536.07 -66.18,-60.6 -187.79,148.31 -213.55,200.72 -39.16,79.7 -98.75,241.05 -115.4,335.35z"/>
 </g>
</svg>
