<?xml version="1.0" encoding="UTF-8"?>
<svg xmlns="http://www.w3.org/2000/svg" viewBox="0 0 300 300">
  <rect x="0" y="0" width="300" height="300" rx="68" fill="#7131E1"/>
  <clipPath id="iconClip">
    <rect x="0" y="0" width="300" height="300" rx="68"/>
  </clipPath>
  <g clip-path="url(#iconClip)">
    <svg x="0" y="0" width="300" height="300" viewBox="200 1500 2200 2800">
      <path fill="white" d="M1707.86 2652.06c22.17,-86.91 69.95,-193.43 103.8,-278.63 36.42,-91.66 72.51,-178.43 108.9,-270.61 36.38,-92.13 104,-190.31 31.69,-279.1 -45.16,-55.46 -184.39,-111.2 -270.05,-45.03 -104.38,80.64 -392.38,860.68 -459.41,1066.31 -63.53,194.89 -117.62,384.74 -163.52,594.54 -49.99,228.53 -110.46,485.77 83.19,590.53 101.24,54.77 215.65,52.65 243.09,-66.06 23.19,-100.26 28.46,-225.82 48.47,-330.48 41.67,-217.96 100.14,-409.47 155.72,-610.99 74.46,40.28 65.59,45.64 159.53,13.27 59.84,-20.62 130.59,-31.39 195.42,-14.86 265.11,67.58 191.18,406.74 68.89,606.26 -164.69,268.72 -401.47,490.43 -727.68,607.59 -171.57,61.63 -477.57,113.21 -591.03,-84.88 -18.89,-32.99 -18.17,-44.77 -53,-59.04 -64.74,-5.35 -196.85,236.77 -41.19,454.48 83.04,116.14 243.2,193.05 446.41,189.69 403.38,-6.66 816.71,-295.37 1055.58,-536.54 153.69,-155.17 301.31,-359.54 372.43,-584.29 93.69,-296.09 82.9,-638.52 -211.25,-792.83 -37.56,-19.7 -85.98,-29.77 -113.76,-49.23 49.4,-41.07 112.48,-72.07 162.73,-112.54 106.84,-86.05 193.79,-161.08 276.22,-275.91 36.03,-50.2 73.29,-110.09 105.45,-169.9 146.93,-273.31 184.17,-606.97 -4.2,-860.77 -157.55,-212.29 -482.24,-285.57 -827.92,-212.57 -314.87,66.49 -552.42,217.87 -721.44,390.03 -215.88,219.88 -103.55,523.44 78.17,511.76 71.08,-4.57 89.92,-91.27 129.53,-149.24 117.86,-172.51 391.06,-380.65 698.9,-411.15 431.57,-42.76 407.62,370.55 255.25,650.67 -99.37,182.67 -354.41,473.86 -594.94,519.49z"/>
      <path fill="white" d="M931.54 2432.38c23.17,-76.88 -39.38,-137.53 -96.35,-181.07 -87.73,-67.07 -457.09,-379.2 -548.66,-273.28 -76.94,89 173.02,219.91 258.4,279.39 129.84,90.44 255.89,210.16 386.62,174.96z"/>
      <path fill="white" d="M729.08 2894.15c17.54,-80.53 -35.37,-98.01 -99.7,-126.7 -132.64,-59.18 -523.26,-175.62 -607.86,-107.35 -27.88,22.5 -27.54,62.51 -5.53,91.41 15.43,20.27 46.85,32.34 79.98,41.94 124.87,36.17 535.32,136.33 633.1,100.71z"/>
    </svg>
  </g>
</svg>
