<?xml version="1.0" encoding="UTF-8"?>
<!DOCTYPE svg PUBLIC "-//W3C//DTD SVG 1.1//EN" "http://www.w3.org/Graphics/SVG/1.1/DTD/svg11.dtd">
<!-- Variante "ink" de clufix_logo.svg — mismo trazo, .fil0 pasa de blanco (#FEFEFE)
     a violeta-negro (#17102A, token --lx-ink) para leerse sobre fondos claros
     (landing pública). Generada jul 2026 para sacar el chip violeta del nav. -->
<svg xmlns="http://www.w3.org/2000/svg" xml:space="preserve" width="16.8939mm" height="9.4866mm" version="1.1" style="shape-rendering:geometricPrecision; text-rendering:geometricPrecision; image-rendering:optimizeQuality; fill-rule:evenodd; clip-rule:evenodd"
viewBox="0 0 556.78 312.65"
 xmlns:xlink="http://www.w3.org/1999/xlink"
 xmlns:xodm="http://www.corel.com/coreldraw/odm/2003">
 <defs>
  <style type="text/css">
   <![CDATA[
    .fil0 {fill:#17102A}
    .fil1 {fill:#FF199F}
   ]]>
  </style>
 </defs>
 <g id="Capa_x0020_1">
  <metadata id="CorelCorpID_0Corel-Layer"/>
  <path class="fil0" d="M309.06 222.82c-42.65,3.2 -175.36,44.61 -183.71,71.46 -1.7,5.46 -0.75,10.28 1.91,13.69 5.03,6.41 11.83,5.39 18.65,1.99 13.51,-6.73 26.77,-17.16 42.1,-24.72 58.79,-29 127.47,-47.71 133.69,-52.1 8.98,-6.33 8.96,-11.94 -12.65,-10.32z"/>
  <path class="fil0" d="M409.29 221.61c-0.08,10.12 12.02,6.55 25.34,7.67 8.83,0.74 37.2,4.32 38.02,-0.63 1.74,-10.57 -33.16,-18.45 -53.11,-16.82 -7.72,0.63 -10.18,1.09 -10.25,9.79z"/>
  <path class="fil0" d="M461.27 57.46c-17.49,6.75 -11.95,38.21 3.7,29.25 11.36,-6.5 16.22,-36.94 -3.7,-29.25z"/>
  <path class="fil1" d="M477.15 41.94c2.47,-2.71 18.37,-28.24 20.09,-32.22 2.01,-4.65 4.35,-11.67 -3.27,-9.2 -9.1,2.95 -19.92,23.95 -22.33,33.32 -1.52,5.92 -2.79,17.19 5.51,8.1z"/>
  <path class="fil1" d="M488.18 61.96c7.88,0.29 20.54,-9.25 32.72,-13.63 3.57,-1.29 11.62,-3.28 7.73,-9.31 -4.51,-6.99 -36.01,8.93 -43.05,18.2 -2.23,2.93 -1.15,4.61 2.6,4.75z"/>
  <path class="fil1" d="M42.41 136.74c-9.21,-10.65 -28.68,-21.57 -32.86,-17.46 -5.84,5.79 22.28,22.87 27.61,25.12 10.62,4.48 12.81,1.08 5.25,-7.67z"/>
  <path class="fil1" d="M33.31 158.73c-11.44,-5.1 -31.39,-6.41 -33.16,-1.48 -2.48,6.9 26.83,9.85 31.92,9.57 10.08,-0.55 10.39,-4.02 1.25,-8.09z"/>
  <path class="fil0" d="M369.15 231.67c-2.49,-11.35 4.84,-53.21 9.09,-62.48 6.83,6.59 7.13,24.89 5.51,35.65 -1.37,9.11 -5.66,27.04 -14.6,26.83zm-193.74 -22.86c-14.76,-38.82 18.84,-129.19 40.69,-151.18 9.1,-9.16 28.51,-15.12 37.8,-2.37 22.6,30.99 -30.25,136.92 -46.4,148.24 10.1,0.16 21.79,-16.16 24.93,-20.75 6.48,-9.47 15.07,-23.49 19.88,-35.08 4.43,-10.67 12.17,-31.26 19.48,-34.48 9.25,-4.08 16.63,0.33 16.91,9 0.43,13.62 -22.64,50.8 -15.35,63.4l2.16 0.79c0.3,0.05 0.75,0.18 1.08,0.21 4.88,0.31 7.8,-4.12 10.06,-7.41 8.46,-12.35 16.76,-28.35 22.5,-43.51 8.66,-22.88 29.45,-33.34 30.9,-17.79 1.35,14.46 -11.05,36.43 -12.97,42.56 -15.43,49.37 29.83,-2.96 39.36,-44.35 4.27,-18.57 14.54,-51.8 22.38,-65.84 16.8,-30.07 42.97,-32.28 53.56,-15.58 14.82,23.36 -7.09,50.56 -17.72,62.26 -6.59,7.67 -38.19,40.89 -39.16,46.63 24.07,7.06 42.64,-23.46 54.04,-39.74 8.72,-12.45 18.12,-9.09 20.94,-4.24 5.23,13.18 -16.59,47.13 -15.45,66.06 9.73,-0.22 22.56,-26.74 27.47,-37.23 5.35,-11.43 5.96,-13.34 5.68,-27.06 -0.26,-12.8 18.32,-24.55 24.87,-0.68 1.28,4.66 1.72,9.77 2.83,13.19 5.33,-2.98 13.76,-16.95 18.26,-23.22 13.03,-18.11 22.52,-7.65 23.86,-1.47 1.93,9 -17.36,30.73 -24.87,37.48 -5,4.49 -6.89,5.8 -10.29,10.56 -2.97,8.91 12.62,34.39 29.43,7.32 2.66,-4.27 4.7,-11.33 12.22,-6.1 10.49,9.99 -17.18,51.34 -44.41,39.18 -7.57,-3.38 -11.2,-7.79 -14.93,-14.21 -3.2,3.46 -5.9,8.49 -8.77,13.02 -17.42,27.49 -29.94,8.73 -17.91,-8.06 1.01,-1.4 1.43,-2.17 2.24,-3.24l1.85 -2.24c6.98,-8.17 18.27,-20.74 11.58,-31 -6.25,18.37 -21.77,45.52 -34.45,53.63 -12.04,7.7 -25.31,1.77 -28.92,-6.91 -5.04,-12.11 3,-25.03 5.27,-35.48 -12.49,7.98 0.03,3.34 -29.08,18.13 15.07,19.28 8.93,71.44 -13.87,88.19 -10.37,7.61 -32.91,9.21 -38.33,-11.39 -4.74,-17.99 2.7,-36.31 4.47,-52.56 -15.92,15.11 -41.32,33.08 -48.78,-2.03 -0.78,2.61 -7.74,11.92 -10,14.44 -16.77,18.64 -43.24,20.02 -43.59,-9.09 -6.03,15.42 -34.56,45.57 -56.86,36.15 -29.65,29.61 -87.28,38.88 -114.51,2.26 -33.63,-45.22 1.7,-107.9 1.7,-107.9l0 0.01c12.19,-23.02 28.7,-42.26 47.94,-51.08 45.09,-20.67 65.65,22.97 42.73,60.78 -15.29,25.22 -45.11,13.1 -31.85,-0.24 7.27,-7.32 9.93,-7.96 14.49,-18.35 2,-4.55 2.98,-9.36 2.77,-13.96 -0.49,-10.33 -3.97,-12.98 -13.99,-9.57 -4.59,1.56 -8.11,4.49 -11.5,7.59 -4.14,3.79 -10.68,11.86 -14.54,18.32 -56.21,94.13 3.35,149.21 62.17,95.98zm56 -97.93c-8.5,26.08 -18.06,57.97 -34,80.08 -4.83,-17.63 20.36,-107.98 38.74,-119.57 3.27,-2.06 3.83,2.23 3.2,8.27 -1.11,10.67 -4.62,21.07 -7.93,31.22zm162.05 1.59c2.51,-13.48 7.68,-28 12,-40.33 2.42,-6.9 14.96,-33.94 21.88,-26.74 8.59,8.95 -20.08,56.81 -33.87,67.07z"/>
 </g>
</svg>
