<?xml version="1.0" encoding="UTF-8"?>
<svg xmlns="http://www.w3.org/2000/svg" viewBox="0 0 101.03 101.03">
  <rect x="0" y="0" width="101.03" height="101.03" fill="#220033"/>
  <path fill="#FF199F" d="M22.52 40.87c-3.78,-4.37 -11.78,-8.86 -13.49,-7.17 -2.4,2.38 9.15,9.39 11.34,10.32 4.36,1.84 5.26,0.44 2.16,-3.15z"/>
  <path fill="#FF199F" d="M18.78 49.9c-4.7,-2.1 -12.89,-2.63 -13.62,-0.61 -1.02,2.83 11.02,4.05 13.11,3.93 4.14,-0.22 4.27,-1.65 0.51,-3.32z"/>
  <path fill="#FEFEFE" d="M36.11 78.04c-13.81,-18.57 0.7,-44.31 0.7,-44.31l0 0c5.01,-9.46 11.79,-17.35 19.69,-20.98 18.52,-8.49 26.96,9.43 17.55,24.96 -6.28,10.36 -18.52,5.38 -13.08,-0.1 2.99,-3.01 4.08,-3.27 5.95,-7.54 0.82,-1.87 1.23,-3.84 1.14,-5.73 -0.2,-4.24 -1.63,-5.33 -5.75,-3.93 -1.89,0.64 -3.33,1.84 -4.72,3.12 -1.7,1.55 -4.39,4.87 -5.97,7.53 -26.44,44.27 9.48,65.61 33.38,30.14 -2.13,33.28 -36.99,32.82 -48.88,16.84z"/>
</svg>
